<svg version="1.0"
	xmlns="http://www.w3.org/2000/svg"
	width="300"
	height="300"
	viewBox="0 0 274.000000 300.000000"
	preserveAspectRatio="xMidYMid "
	class="svg"
	style="width: 256px; height: 256px;">
	<g transform="translate(0.000000,300.000000) scale(0.100000,-0.100000)"
		fill="#2C2C2C"
		stroke="none">
		<path class="node"
			id="node1"
			d="M1335 2521 c-29 -13 -58 -48 -52 -65 6 -15 -19 -26 -64 -26 -39 0
-179 -39 -228 -63 -47 -24 -91 -78 -91 -114 0 -13 -16 -43 -35 -68 -19 -25
-37 -62 -41 -82 -9 -46 4 -1532 13 -1547 68 -115 135 -204 159 -213 167 -62
315 -93 449 -93 110 0 378 36 416 56 40 20 77 72 110 156 l28 73 1 775 c0 772
0 776 -21 815 -12 22 -25 64 -29 93 -10 66 -25 83 -103 117 -34 15 -75 33 -92
40 -16 7 -72 22 -123 32 -93 18 -94 19 -128 64 -19 26 -41 50 -50 53 -22 8
-95 6 -119 -3z m148 -57 c23 -26 64 -71 90 -100 27 -29 46 -58 42 -63 -9 -16
-110 -13 -149 3 -68 28 -146 116 -146 165 0 22 37 39 88 40 27 1 40 -7 75 -45z
m-171 -71 c30 -27 21 -33 -56 -33 -72 0 -106 -13 -106 -40 0 -17 45 -40 79
-40 75 0 156 -21 191 -50 19 -16 32 -31 29 -34 -9 -9 -214 20 -303 43 -44 12
-87 21 -97 21 -33 0 -33 23 -1 51 32 28 132 65 165 60 9 -1 17 3 17 8 0 14
-47 14 -55 0 -4 -6 -13 -8 -20 -5 -16 6 -122 -34 -157 -58 -24 -17 -48 -21
-48 -8 0 14 68 51 125 67 122 36 210 43 237 18z m348 -6 c109 -25 240 -90 240
-120 0 -6 -10 -1 -22 10 -34 30 -97 59 -158 72 -99 22 -102 22 -95 11 3 -5 16
-10 29 -10 12 0 26 -4 32 -9 5 -4 32 -14 59 -21 89 -24 130 -66 85 -90 -17 -9
-22 -7 -30 14 -12 34 -47 55 -101 62 -41 5 -45 3 -60 -24 -18 -33 -56 -44
-113 -35 -40 6 -48 -8 -19 -39 13 -15 14 -18 1 -18 -8 0 -25 12 -39 26 -39 43
-124 75 -212 82 -81 5 -97 13 -77 37 17 20 167 21 189 1 47 -41 117 -66 183
-66 57 0 69 3 78 20 9 17 5 28 -27 67 l-38 46 40 -6 c22 -3 47 -8 55 -10z
m-675 -127 c78 -34 291 -80 419 -91 167 -15 303 0 454 49 54 17 63 18 60 5 -8
-39 -219 -75 -433 -75 -162 0 -268 13 -413 48 -125 30 -152 42 -152 66 0 23 7
23 65 -2z m160 -106 c101 -26 246 -37 436 -31 l187 5 21 -26 c13 -17 21 -21
21 -12 0 13 1 13 10 0 5 -8 12 -12 15 -8 4 3 -1 18 -10 32 -10 14 -13 26 -7
26 10 0 66 -69 61 -75 -2 -2 -31 -11 -64 -20 -122 -34 -534 -30 -691 6 l-52
12 19 31 c25 41 24 51 -6 52 -14 1 -25 -3 -25 -8 0 -7 -4 -7 -13 0 -9 8 -18 2
-36 -24 -30 -44 -52 -31 -25 15 10 16 21 28 25 26 4 -3 12 2 19 10 13 15 21
15 115 -11z m788 -15 c9 -17 17 -38 17 -46 0 -14 -3 -13 -21 3 -27 24 -42 52
-34 64 10 16 19 11 38 -21z m-43 -25 c12 -19 20 -37 17 -40 -5 -5 -57 58 -57
69 0 18 21 3 40 -29z m-755 -91 c113 -26 134 -28 350 -28 239 0 253 2 463 61
l22 6 0 -769 0 -770 -22 -33 c-32 -48 -98 -77 -213 -96 -144 -24 -311 -21
-480 9 -248 44 -342 81 -392 157 l-23 34 0 752 c1 413 3 754 6 756 2 3 41 -8
87 -23 45 -16 136 -41 202 -56z m-144 -1585 c17 3 84 -77 73 -87 -3 -3 -24 14
-45 39 -40 46 -55 43 -18 -4 11 -14 16 -26 10 -26 -6 0 -22 20 -36 43 -26 45
-34 74 -12 47 7 -9 19 -14 28 -12z m121 -32 c50 -17 118 -30 239 -47 81 -11
243 -8 372 7 43 6 47 4 47 -15 0 -29 18 -26 26 4 6 25 24 35 24 14 0 -5 5 -7
10 -4 6 3 10 2 10 -2 0 -74 -338 -109 -595 -63 -135 25 -145 28 -145 45 0 7
-12 27 -26 44 -29 35 -23 37 38 17z m769 -39 l-23 -22 17 28 c10 15 20 25 23
22 3 -3 -5 -16 -17 -28z"></path>
		<path class="node"
			id="node2"
			d="M1368 2479 c-10 -5 -18 -16 -18 -23 0 -24 40 -65 68 -68 21 -2 27 -8
27 -28 0 -30 51 -60 102 -60 39 0 47 10 27 38 -21 31 -66 52 -95 45 -22 -5
-23 -4 -6 8 15 12 16 19 6 47 -17 48 -67 67 -111 41z m61 -22 c13 -16 5 -27
-19 -27 -24 0 -46 26 -28 33 22 9 35 7 47 -6z m31 -47 c0 -5 -15 -9 -32 -9
l-33 1 30 8 c17 4 31 8 33 9 1 0 2 -3 2 -9z m75 -70 c10 -11 16 -23 13 -26 -6
-6 -88 33 -88 41 0 14 59 2 75 -15z"></path>
		<path class="node"
			id="node3"
			d="M866 2071 c-9 -14 -10 -1303 -1 -1409 7 -84 10 -94 34 -111 28 -20
150 -71 169 -71 25 0 11 21 -17 26 -22 5 -28 11 -24 23 4 12 3 13 -5 2 -8 -11
-16 -10 -46 4 -42 20 -43 31 -1 15 15 -6 30 -9 32 -6 3 2 -6 7 -19 12 -13 4
-34 14 -48 23 l-24 16 29 6 c30 7 30 7 6 15 l-24 7 7 551 c3 303 9 615 13 694
6 132 7 142 25 137 35 -12 18 16 -29 45 -49 31 -68 36 -77 21z"></path>
		<path class="node"
			id="node4"
			d="M1937 1766 c-4 -143 -8 -471 -9 -730 l-3 -471 -5 455 -5 455 -4 -370
c-2 -203 -7 -413 -11 -465 -5 -67 -8 11 -10 260 -1 195 -6 384 -10 420 -4 38
-8 -119 -10 -370 -1 -239 -2 -438 -1 -443 1 -4 -12 -10 -29 -13 -30 -7 -64
-34 -41 -34 7 0 10 -4 7 -8 -4 -7 12 -8 70 -4 13 1 33 19 49 43 l29 40 3 242
c2 133 0 469 -4 747 l-8 505 -8 -259z m-82 -1296 c-3 -5 -16 -10 -28 -9 -20 1
-20 2 3 9 14 4 26 8 28 9 2 1 0 -3 -3 -9z"></path>
		<path class="node"
			id="node5"
			d="M988 1783 c-7 -342 0 -1156 10 -1162 5 -3 12 -13 15 -21 3 -8 3 23 1
69 -3 48 -1 87 5 90 12 8 27 1193 15 1212 -5 8 -11 -230 -14 -591 l-5 -605 -3
608 c-1 350 -6 607 -11 607 -5 0 -11 -93 -13 -207z"></path>
		<path class="node"
			id="node6"
			d="M1884 1720 c0 -140 2 -198 3 -127 2 70 2 184 0 255 -1 70 -3 12 -3
-128z"></path>
	</g>
	<g transform="translate(0.000000,300.000000) scale(0.100000,-0.100000)"
		fill="#FFFFFF"
		stroke="none">

		<path class="node"
			id="node8"
			d="M1348 2498 c-32 -11 -36 -34 -14 -77 19 -37 90 -99 132 -117 39 -16
140 -19 149 -3 4 5 -15 34 -42 63 -26 29 -67 74 -90 100 -45 49 -75 57 -135
34z m102 -18 c10 -5 23 -24 29 -42 10 -28 9 -35 -6 -47 -17 -12 -16 -13 6 -8
29 7 74 -14 95 -45 20 -28 12 -38 -27 -38 -51 0 -102 30 -102 60 0 20 -6 26
-27 28 -28 3 -68 44 -68 68 0 29 63 44 100 24z"></path>
		<path class="node"
			id="node9"
			d="M1382 2463 c-18 -7 4 -33 28 -33 24 0 32 11 19 27 -12 13 -25 15 -47
6z"></path>
		<path class="node"
			id="node10"
			d="M1425 2410 l-30 -8 33 -1 c17 0 32 4 32 9 0 6 -1 9 -2 9 -2 -1 -16
-5 -33 -9z"></path>
		<path class="node"
			id="node11"
			d="M1460 2355 c0 -8 82 -47 88 -41 11 12 -32 46 -60 46 -15 0 -28 -2
-28 -5z"></path>
		<path class="node"
			id="node12"
			d="M1178 2400 c-106 -18 -227 -67 -228 -92 0 -13 24 -9 48 8 35 24 141
64 157 58 7 -3 16 -1 20 5 8 14 55 14 55 0 0 -5 -8 -9 -17 -8 -33 5 -133 -32
-165 -60 -32 -28 -32 -51 1 -51 10 0 53 -9 97 -21 89 -23 294 -52 303 -43 3 3
-10 18 -29 34 -35 29 -116 50 -191 50 -34 0 -79 23 -79 40 0 27 34 40 106 40
77 0 86 6 56 33 -20 18 -57 20 -134 7z"></path>
		<path class="node"
			id="node13"
			d="M1603 2357 c32 -39 36 -50 27 -67 -9 -17 -21 -20 -78 -20 -66 0 -136
25 -183 66 -22 20 -172 19 -189 -1 -20 -24 -4 -32 77 -37 88 -7 173 -39 212
-82 14 -14 31 -26 39 -26 13 0 12 3 -1 18 -29 31 -21 45 19 39 57 -9 95 2 113
35 15 27 19 29 60 24 54 -7 89 -28 101 -62 8 -21 13 -23 30 -14 45 24 4 66
-85 90 -27 7 -54 17 -59 21 -6 5 -20 9 -32 9 -13 0 -26 5 -29 10 -7 11 -4 11
95 -11 61 -13 124 -42 158 -72 12 -11 22 -16 22 -10 0 38 -161 109 -295 130
l-40 6 38 -46z"></path>
		<path class="node"
			id="node14"
			d="M920 2262 c0 -24 27 -36 152 -66 145 -35 251 -48 413 -48 214 0 425
36 433 75 3 13 -6 12 -60 -5 -151 -49 -287 -64 -454 -49 -128 11 -341 57 -419
91 -58 25 -65 25 -65 2z"></path>
		<path class="node"
			id="node15"
			d="M1030 2165 c-7 -8 -15 -13 -19 -10 -4 2 -15 -10 -25 -26 -27 -46 -5
-59 25 -15 18 26 27 32 36 24 9 -7 13 -7 13 0 0 5 11 9 25 8 30 -1 31 -11 6
-52 l-19 -31 52 -12 c157 -36 569 -40 691 -6 33 9 62 18 64 20 5 6 -51 75 -61
75 -6 0 -3 -12 7 -26 9 -14 14 -29 10 -32 -3 -4 -10 0 -15 8 -9 13 -10 13 -10
0 0 -9 -8 -5 -21 12 l-21 26 -187 -5 c-190 -6 -335 5 -436 31 -94 26 -102 26
-115 11z"></path>
		<path class="node"
			id="node16"
			d="M1895 2160 c-8 -12 7 -40 34 -64 18 -16 21 -17 21 -3 0 18 -32 77
-42 77 -4 0 -10 -4 -13 -10z"></path>
		<path class="node"
			id="node17"
			d="M1850 2143 c0 -11 52 -74 57 -69 7 7 -36 76 -48 76 -5 0 -9 -3 -9 -7z"></path>
		<path class="node"
			id="node18"
			d="M846 2102 c-3 -2 -5 -343 -6 -756 l0 -752 23 -34 c50 -76 144 -113
392 -157 169 -30 336 -33 480 -9 115 19 181 48 213 96 l22 33 0 770 0 769 -22
-6 c-210 -59 -224 -61 -463 -61 -216 0 -237 2 -350 28 -66 15 -157 40 -202 56
-46 15 -85 26 -87 23z m97 -52 c47 -29 64 -57 29 -45 -18 5 -19 -5 -25 -137
-4 -79 -10 -391 -13 -694 l-7 -551 24 -7 c24 -8 24 -8 -6 -15 l-29 -6 24 -16
c14 -9 35 -19 48 -23 13 -5 22 -10 19 -12 -2 -3 -17 0 -32 6 -42 16 -41 5 1
-15 30 -14 38 -15 46 -4 8 11 9 10 5 -2 -4 -12 2 -18 24 -23 28 -5 42 -26 17
-26 -19 0 -141 51 -169 71 -24 17 -27 27 -34 111 -9 106 -8 1395 1 1409 9 15
28 10 77 -21z m1014 -1277 l-3 -242 -29 -40 c-16 -24 -36 -42 -49 -43 -58 -4
-74 -3 -70 4 3 4 0 8 -7 8 -23 0 11 27 41 34 17 3 30 9 29 13 -1 5 0 204 1
443 2 251 6 408 10 370 4 -36 9 -225 10 -420 2 -249 5 -327 10 -260 4 52 9
262 11 465 l4 370 5 -455 5 -455 3 471 c1 259 5 587 9 730 l8 259 8 -505 c4
-278 6 -614 4 -747z m-945 610 l3 -608 5 605 c3 361 9 599 14 591 12 -19 -3
-1204 -15 -1212 -6 -3 -8 -42 -5 -90 2 -46 2 -77 -1 -69 -3 8 -10 18 -15 21
-10 6 -17 820 -10 1162 2 114 8 207 13 207 5 0 10 -257 11 -607z m875 210 c-1
-71 -3 -13 -3 127 0 140 2 198 3 128 2 -71 2 -185 0 -255z"></path>
		<path class="node"
			id="node19"
			d="M1830 470 c-23 -7 -23 -8 -3 -9 12 -1 25 4 28 9 3 6 5 10 3 9 -2 -1
-14 -5 -28 -9z"></path>
		<path class="node"
			id="node20"
			d="M950 456 c0 -16 50 -96 61 -96 6 0 1 12 -10 26 -37 47 -22 50 18 4
21 -25 42 -42 45 -39 11 10 -56 90 -73 87 -9 -2 -21 3 -28 12 -7 8 -13 11 -13
6z"></path>
		<path class="node"
			id="node21"
			d="M1074 389 c14 -17 26 -37 26 -44 0 -17 10 -20 145 -45 257 -46 595
-11 595 63 0 4 -4 5 -10 2 -5 -3 -10 -1 -10 4 0 21 -18 11 -24 -14 -8 -30 -26
-33 -26 -4 0 19 -4 21 -47 15 -129 -15 -291 -18 -372 -7 -121 17 -189 30 -239
47 -61 20 -67 18 -38 -17z"></path>
		<path class="node"
			id="node22"
			d="M1875 373 l-17 -28 23 22 c12 12 20 25 17 28 -3 3 -13 -7 -23 -22z"></path>
	</g>
</svg>